<svg xmlns="http://www.w3.org/2000/svg" fill="#fff" enable-background="new 0 0 24 24" height="24" viewBox="0 0 24 24" width="24" focusable="false" aria-hidden="true" style="pointer-events: none; display: inherit; width: 100%; height: 100%;"><g><path d="M14 12c0 1.1-.9 2-2 2s-2-.9-2-2 .9-2 2-2 2 .9 2 2zM6.36 6.33 4.95 4.92C3.13 6.73 2 9.24 2 12s1.13 5.27 2.95 7.08l1.41-1.41C4.9 16.22 4 14.21 4 12s.9-4.22 2.36-5.67zm12.69-1.41-1.41 1.41C19.1 7.78 20 9.79 20 12s-.9 4.22-2.36 5.67l1.41 1.41C20.87 17.27 22 14.76 22 12s-1.13-5.27-2.95-7.08zM9.19 9.16 7.77 7.75C6.68 8.83 6 10.34 6 12s.68 3.17 1.77 4.25l1.41-1.41C8.46 14.11 8 13.11 8 12s.46-2.11 1.19-2.84zm7.04-1.41-1.41 1.41C15.54 9.89 16 10.89 16 12s-.46 2.11-1.19 2.84l1.41 1.41C17.32 15.17 18 13.66 18 12s-.68-3.17-1.77-4.25z"></path></g></svg>